<?xml version="1.0" encoding="UTF-8"?>
<svg id="_Слой_2" data-name="Слой 2" xmlns="http://www.w3.org/2000/svg" viewBox="0 0 537.83 208.54">
  <defs>
    <style>
      .cls-1 {
        fill: #10b981;
      }

      .cls-2 {
        fill: #0ea5e9;
      }

      .cls-3 {
        fill: #0369a1;
      }
    </style>
  </defs>
  <g id="_Слой_1-2" data-name="Слой 1">
    <g>
      <path class="cls-1" d="M0,20.74h28.8v163.31h39.26v22.15H0V20.74Z"/>
      <path class="cls-1" d="M81.13,35.94c-5.19,0-9.36-1.59-12.51-4.78-3.15-3.18-4.73-7.67-4.73-13.46,0-6.44,1.57-11,4.73-13.68,3.15-2.68,7.36-4.02,12.62-4.02s9.77,1.45,12.84,4.34c3.08,2.9,4.61,7.35,4.61,13.36,0,5.65-1.56,10.1-4.67,13.36-3.11,3.26-7.41,4.89-12.9,4.89ZM67.23,56.68h28.14v149.52h-28.14V56.68Z"/>
      <path class="cls-1" d="M92.79,56.68h28.02l14.79,79.49,3.67,31.82h.89l4.23-31.82,14.68-79.49h27.13l-34.92,149.52h-24.02L92.79,56.68Z"/>
      <path class="cls-1" d="M173.2,145.02v-28.23c0-11.44,1-20.92,3-28.45,2-7.53,4.65-13.54,7.95-18.03,3.3-4.49,6.93-7.82,10.9-9.99,3.97-2.17,7.91-3.6,11.84-4.29,3.93-.69,7.52-1.03,10.79-1.03,6.75,0,12.97,1.39,18.68,4.18,5.71,2.79,10.29,7.57,13.73,14.33,3.45,6.77,5.17,16.16,5.17,28.18,0,6.01-.33,12.14-1,18.41-.67,6.26-1.56,11.78-2.67,16.56h-50.16v15.2c0,13.03,1.13,22.22,3.39,27.58,2.26,5.36,6.58,8.04,12.96,8.04,3.48,0,6.63-1.47,9.45-4.4,2.82-2.93,4.23-8.34,4.23-16.23v-6.52h23.13v6.84c0,14.19-3.47,24.52-10.4,31-6.93,6.48-16.96,9.72-30.08,9.72s-23.32-4.92-30.36-14.77c-7.04-9.84-10.56-25.88-10.56-48.1ZM229.02,118.2c.15-1.59.26-4,.33-7.22.07-3.22.11-5.81.11-7.76,0-9.92-1.08-17.01-3.23-21.28-2.15-4.27-5.56-6.44-10.23-6.52-4.97,0-8.64,2.44-11.01,7.33-2.37,4.89-3.56,13.77-3.56,26.66v8.8h27.58Z"/>
      <path class="cls-3" d="M271.8,168.58c0-3.98.24-7.67.72-11.08.48-3.4,1.2-7.02,2.17-10.86h22.35v8.25c0,9.99,1.56,17.65,4.67,22.97,3.11,5.32,7.9,7.98,14.35,7.98,11.12,0,16.68-5.32,16.68-15.96,0-4.13-.91-8.47-2.72-13.03-1.82-4.56-5.36-10.13-10.62-16.72l-30.03-36.81c-5.27-6.66-9.36-13.32-12.29-19.98-2.93-6.66-4.39-14.08-4.39-22.26,0-12.31,3.91-22.39,11.73-30.24,7.82-7.85,18.66-11.78,32.53-11.78,11.19,0,19.98,1.97,26.36,5.92,6.38,3.95,10.88,8.92,13.51,14.93,2.63,6.01,3.95,12.16,3.95,18.46,0,3.98-.32,7.66-.95,11.02-.63,3.37-1.35,7.08-2.17,11.13h-22.24v-8.9c0-9.77-1.6-17.3-4.78-22.59-3.19-5.28-7.75-7.93-13.68-7.93-5.41,0-9.51,1.47-12.29,4.4s-4.17,6.86-4.17,11.78c0,4.2.89,8.02,2.67,11.46,1.78,3.44,4.04,6.97,6.78,10.59l33.47,41.48c6.15,7.75,10.84,15.11,14.07,22.1,3.23,6.99,4.84,14.75,4.84,23.29,0,12.81-4.19,22.97-12.57,30.46-8.38,7.49-19.54,11.24-33.47,11.24-11.42,0-20.37-1.9-26.86-5.7-6.49-3.8-11.05-8.7-13.68-14.71-2.63-6.01-3.95-12.31-3.95-18.89Z"/>
      <path class="cls-2" d="M261.66,168.58c0-3.98.24-7.67.72-11.08.48-3.4,1.2-7.02,2.17-10.86h22.35v8.25c0,9.99,1.56,17.65,4.67,22.97,3.11,5.32,7.9,7.98,14.35,7.98,11.12,0,16.68-5.32,16.68-15.96,0-4.13-.91-8.47-2.72-13.03-1.82-4.56-5.36-10.13-10.62-16.72l-30.03-36.81c-5.27-6.66-9.36-13.32-12.29-19.98-2.93-6.66-4.39-14.08-4.39-22.26,0-12.31,3.91-22.39,11.73-30.24,7.82-7.85,18.66-11.78,32.53-11.78,11.19,0,19.98,1.97,26.36,5.92,6.38,3.95,10.88,8.92,13.51,14.93,2.63,6.01,3.95,12.16,3.95,18.46,0,3.98-.32,7.66-.95,11.02-.63,3.37-1.35,7.08-2.17,11.13h-22.24v-8.9c0-9.77-1.6-17.3-4.78-22.59-3.19-5.28-7.75-7.93-13.68-7.93-5.41,0-9.51,1.47-12.29,4.4s-4.17,6.86-4.17,11.78c0,4.2.89,8.02,2.67,11.46,1.78,3.44,4.04,6.97,6.78,10.59l33.47,41.48c6.15,7.75,10.84,15.11,14.07,22.1,3.23,6.99,4.84,14.75,4.84,23.29,0,12.81-4.19,22.97-12.57,30.46-8.38,7.49-19.54,11.24-33.47,11.24-11.42,0-20.37-1.9-26.86-5.7-6.49-3.8-11.05-8.7-13.68-14.71-2.63-6.01-3.95-12.31-3.95-18.89Z"/>
      <path class="cls-3" d="M381.96,145.02v-28.23c0-11.44,1-20.92,3-28.45,2-7.53,4.65-13.54,7.95-18.03,3.3-4.49,6.93-7.82,10.9-9.99,3.97-2.17,7.91-3.6,11.84-4.29,3.93-.69,7.52-1.03,10.79-1.03,6.75,0,12.97,1.39,18.68,4.18,5.71,2.79,10.29,7.57,13.73,14.33,3.45,6.77,5.17,16.16,5.17,28.18,0,6.01-.33,12.14-1,18.41-.67,6.26-1.56,11.78-2.67,16.56h-50.16v15.2c0,13.03,1.13,22.22,3.39,27.58,2.26,5.36,6.58,8.04,12.96,8.04,3.48,0,6.63-1.47,9.45-4.4,2.82-2.93,4.23-8.34,4.23-16.23v-6.52h23.13v6.84c0,14.19-3.47,24.52-10.4,31-6.93,6.48-16.96,9.72-30.08,9.72s-23.32-4.92-30.36-14.77c-7.04-9.84-10.56-25.88-10.56-48.1ZM437.79,118.2c.15-1.59.26-4,.33-7.22.07-3.22.11-5.81.11-7.76,0-9.92-1.08-17.01-3.23-21.28-2.15-4.27-5.56-6.44-10.23-6.52-4.97,0-8.64,2.44-11.01,7.33-2.37,4.89-3.56,13.77-3.56,26.66v8.8h27.58Z"/>
      <path class="cls-2" d="M372.78,145.02v-28.23c0-11.44,1-20.92,3-28.45,2-7.53,4.65-13.54,7.95-18.03,3.3-4.49,6.93-7.82,10.9-9.99,3.97-2.17,7.91-3.6,11.84-4.29,3.93-.69,7.52-1.03,10.79-1.03,6.75,0,12.97,1.39,18.68,4.18,5.71,2.79,10.29,7.57,13.73,14.33,3.45,6.77,5.17,16.16,5.17,28.18,0,6.01-.33,12.14-1,18.41-.67,6.26-1.56,11.78-2.67,16.56h-50.16v15.2c0,13.03,1.13,22.22,3.39,27.58,2.26,5.36,6.58,8.04,12.96,8.04,3.48,0,6.63-1.47,9.45-4.4,2.82-2.93,4.23-8.34,4.23-16.23v-6.52h23.13v6.84c0,14.19-3.47,24.52-10.4,31-6.93,6.48-16.96,9.72-30.08,9.72s-23.32-4.92-30.36-14.77c-7.04-9.84-10.56-25.88-10.56-48.1ZM428.61,118.2c.15-1.59.26-4,.33-7.22.07-3.22.11-5.81.11-7.76,0-9.92-1.08-17.01-3.23-21.28-2.15-4.27-5.56-6.44-10.23-6.52-4.97,0-8.64,2.44-11.01,7.33-2.37,4.89-3.56,13.77-3.56,26.66v8.8h27.58Z"/>
      <path class="cls-3" d="M484.12,78.13h-13.01v-20.85h15.46l5.67-38.77h20.02v38.77h25.58v20.85h-25.58v91.65c0,6.52,1.2,10.64,3.61,12.38,2.41,1.74,5.24,2.61,8.51,2.61,5.19,0,9.64-1.12,13.35-3.37v17.37c-3.19,3.84-6.9,6.42-11.12,7.76-4.23,1.34-8.3,2.01-12.23,2.01-5.19,0-10.1-1-14.73-2.99-4.63-1.99-8.38-5.79-11.23-11.4-2.85-5.61-4.28-13.81-4.28-24.59v-91.43Z"/>
      <path class="cls-2" d="M475.04,78.13h-13.01v-20.85h15.46l5.67-38.77h20.02v38.77h25.58v20.85h-25.58v91.65c0,6.52,1.2,10.64,3.61,12.38,2.41,1.74,5.24,2.61,8.51,2.61,5.19,0,9.64-1.12,13.35-3.37v17.37c-3.19,3.84-6.9,6.42-11.12,7.76-4.23,1.34-8.3,2.01-12.23,2.01-5.19,0-10.1-1-14.73-2.99-4.63-1.99-8.38-5.79-11.23-11.4-2.85-5.61-4.28-13.81-4.28-24.59v-91.43Z"/>
    </g>
  </g>
</svg>