<?xml version="1.0" encoding="UTF-8"?>
<svg id="_Слой_2" data-name="Слой 2" xmlns="http://www.w3.org/2000/svg" viewBox="0 0 612.1 691.35">
  <defs>
    <style>
      .cls-1 {
        fill: #6a607f;
      }

      .cls-1, .cls-2, .cls-3, .cls-4, .cls-5, .cls-6 {
        stroke: #000;
        stroke-miterlimit: 10;
      }

      .cls-7 {
        fill: #88789b;
      }

      .cls-2, .cls-3 {
        fill: #3c3449;
      }

      .cls-8 {
        fill: #687f92;
      }

      .cls-3, .cls-4, .cls-6 {
        stroke-width: 3px;
      }

      .cls-9 {
        fill: #574d68;
      }

      .cls-10 {
        fill: #bacce1;
      }

      .cls-4, .cls-5 {
        fill: #554c67;
      }

      .cls-11 {
        fill: #10b981;
      }

      .cls-12 {
        fill: #0ea5e9;
      }

      .cls-13 {
        fill: #91aac6;
      }

      .cls-6 {
        fill: none;
      }

      .cls-14 {
        fill: #0369a1;
      }
    </style>
  </defs>
  <g id="_Слой_2-2" data-name="Слой 2">
    <path d="M208.31,562.6l36.42-2.71c4.9-.36,17.71-9.01,15.16-18.33l-2.23-27.16-3.34-31.04-115.76,6.73-120.63,6.59c-3.99.22-9.82-3.46-11.79-6.05l-6.15-8.12,25.26-135.45,28.94-157.04,13.04-65.14c2.96-3.13,6.5-6.59,10.08-9.09l86.34-26.6L454.78.44c4.87-1.48,8.6.92,10.48,4.85,2.38,4.97,1.29,9.89.76,15.41l-9.94,102.93-22.87,231.81-10.46,101.72c-.83,8.06-3.51,16.2-13.76,16.77l-55.86,3.11,3.17,11.94,4.13,15.18,9.8,37.15c-.31,10.7-2.72,19.35-9.15,27.32-4.74,5.87-10.66,6.85-18.34,6.86l-229.62.25c-1.02,0-2.9-1.09-3.4-1.71-.62-.77,2.13-2.9,3.18-2.99l95.42-8.44ZM383.41,471.84l24.28-2.55c5.65-.59,11.54-4.97,12.1-10.82l8.57-89.51,7.17-70.9,15.32-148.44,7.66-77.46,4.57-42.57.23-8.08.47-11.05-2.2,9.59-12.12,126.12-22,212.85-10.07,91.99c-.7,6.39-5.09,11.8-10.79,15.32l-88.78,6.01L11.81,491.82c3.46,1.54,6.55,2.79,10.37,2.55l361.22-22.53ZM390.73,373.93l13.08-.96,1.33-18.67c.07-15.01,3.79-28.78,5.44-44l25.73-237.2,4.81-41.54L150.18,119.58l-67.37,20.21-10.47,56.95c-1.16,8.04-2.35,15.1-4.3,23.18l-36.28,194.83,125.22-14.3,233.74-26.53ZM325,467.87l79.32-4.87c3.76-2.08,8.61-6.19,9.08-10.9l5.65-56.2-370.88,37.58-34.96,3.33-8.28,41.93c-.63,3.2,1.42,10.17,6.19,9.85l313.89-20.73ZM176.12,569.25l76.54.88c2.71-1.77,5.74-2.39,9.32-2.73l82.96-7.85c8.33-.79,14.67-11.19,13.15-18.14l-8.48-38.69c-1.88-8.57-4.68-16.67-7.89-24.86l-84.71,5.32.77,17.31,1.34,10.04,3.59,29.55c.98,8.05-2.25,15.7-9.51,19.71-4.99,4.86-11.81,6.03-18.38,3.87l-46.92,4.14-11.78,1.44ZM333.72,572.05l11.03-.49c7.14.6,11.91-2.22,15.66-7.59,5.41-7.75,7.11-16.39,4.88-25.8l-14.36-60.46-5.31.48c7.03,21.71,12.94,41.97,15.91,63.5-1.59,10.06-7.34,21.06-17.6,21.9l-81.64,6.68c7.15,2.52,14.3,1.53,21.67,1.82l49.77-.03Z"/>
    <g>
      <path class="cls-11" d="M125.49,178.28l11.33-3.23-28.93,158.58,16.15-2.21-4.1,23.03-27.76,3.18,33.29-179.36Z"/>
      <path class="cls-11" d="M155.51,183.42c-2.15.58-3.6-.46-4.36-3.12-.76-2.65-.65-6.69.32-12.13,1.07-6.02,2.47-10.46,4.21-13.34,1.73-2.88,3.68-4.65,5.85-5.3s3.81.13,4.62,2.47c.81,2.34.72,6.35-.27,12.04-.93,5.36-2.33,9.79-4.17,13.25-1.85,3.47-3.91,5.51-6.19,6.13ZM146.25,204.75l11.7-2.97-26.43,151.36-11.92,1.37,26.65-149.75Z"/>
      <path class="cls-11" d="M156.88,202.05l11.89-3.02-7.19,78.37-4,32.85.39-.06,7.48-33.5,19.99-81.9,12.14-3.08-41.53,158.61-10.68,1.22,11.5-149.49Z"/>
      <path class="cls-11" d="M176.81,283.62l4.86-29.43c1.94-11.78,4-21.58,6.16-29.45,2.16-7.85,4.35-14.21,6.59-19.1,2.23-4.89,4.43-8.65,6.59-11.29,2.17-2.64,4.21-4.54,6.12-5.7,1.92-1.16,3.64-1.93,5.15-2.31,3.14-.8,5.83-.13,8.07,2.04,2.25,2.18,3.67,6.56,4.23,13.16.56,6.65-.12,16.28-2.07,28.94-.98,6.37-2.15,12.92-3.5,19.67-1.36,6.77-2.7,12.78-4.04,18.03l-23.77,4.32-2.61,16.16c-2.25,13.97-3.33,23.82-3.21,29.48.12,5.69,1.68,8.35,4.7,7.95,1.65-.22,3.41-2.04,5.27-5.45,1.86-3.41,3.47-9.45,4.82-18.08l1.12-7.09,11.16-1.78-1.16,7.52c-2.42,15.7-5.89,27.45-10.39,35.12-4.49,7.66-9.89,11.83-16.15,12.54-6.22.7-10.06-4.17-11.57-14.53-1.49-10.23-.26-27.18,3.62-50.71ZM207.24,250.51c.34-1.7.79-4.25,1.36-7.65.57-3.39,1.01-6.11,1.34-8.16,1.63-10.36,2.29-17.61,1.97-21.8-.31-4.17-1.55-6.02-3.72-5.58-2.31.55-4.4,3.45-6.3,8.71-1.9,5.26-3.92,14.53-6.08,27.88l-1.48,9.17,12.91-2.57Z"/>
      <path class="cls-14" d="M219.51,301.47c.67-4.42,1.41-8.52,2.22-12.32.81-3.79,1.77-7.83,2.88-12.12l11.17-1.93-1.36,9.16c-1.65,11.15-2.14,19.63-1.44,25.4.7,5.81,2.71,8.51,6.03,8.06,5.78-.78,9.56-7.29,11.31-19.48.67-4.7.9-9.56.7-14.57-.21-4.99-1.14-10.93-2.79-17.81l-9.27-37.24c-1.55-6.56-2.5-13.19-2.88-19.91-.38-6.67.09-14.26,1.38-22.77,1.93-12.72,5.4-23.59,10.42-32.68,5.03-9.1,10.98-14.64,17.9-16.62,5.64-1.61,9.82-.85,12.5,2.33,2.7,3.21,4.31,7.79,4.79,13.77.49,6.01.27,12.39-.67,19.14-.59,4.28-1.31,8.28-2.14,11.99-.84,3.72-1.78,7.83-2.82,12.33l-11.58,2.7,1.36-9.57c1.49-10.44,1.81-18.22.98-23.38-.83-5.13-2.74-7.28-5.74-6.48-2.72.73-4.99,2.8-6.83,6.22-1.84,3.42-3.13,7.69-3.89,12.84-.65,4.4-.8,8.31-.44,11.71.36,3.42.94,6.89,1.76,10.41l10.71,41.4c2.02,8,3.34,15.81,3.95,23.38.62,7.64.25,16.37-1.11,26.18-2.05,14.83-5.95,26.97-11.67,36.3-5.7,9.31-12.22,14.37-19.5,15.19-5.9.67-10.15-1-12.8-4.98-2.62-3.94-4.07-9.22-4.36-15.83-.29-6.57.13-13.52,1.24-20.85Z"/>
      <path class="cls-12" d="M214.51,302.23c.67-4.4,1.41-8.48,2.22-12.26.81-3.77,1.77-7.79,2.88-12.07l11.07-1.91-1.36,9.12c-1.66,11.1-2.16,19.55-1.48,25.3.68,5.79,2.66,8.48,5.96,8.03,5.73-.77,9.49-7.26,11.24-19.39.68-4.68.92-9.52.72-14.51-.19-4.97-1.11-10.89-2.73-17.73l-9.1-37.1c-1.52-6.54-2.45-13.14-2.81-19.83-.36-6.64.12-14.2,1.42-22.68,1.94-12.68,5.4-23.49,10.4-32.54,5.01-9.06,10.91-14.57,17.77-16.53,5.59-1.6,9.73-.83,12.38,2.34,2.67,3.2,4.25,7.77,4.71,13.72.47,5.99.23,12.34-.71,19.06-.6,4.26-1.32,8.24-2.15,11.94-.84,3.7-1.78,7.8-2.82,12.28l-11.48,2.68,1.37-9.53c1.5-10.39,1.83-18.15,1.02-23.29-.81-5.11-2.7-7.26-5.67-6.46-2.7.72-4.95,2.78-6.78,6.19-1.83,3.4-3.12,7.66-3.88,12.78-.65,4.38-.81,8.27-.47,11.67.35,3.41.92,6.87,1.72,10.38l10.51,41.24c1.98,7.97,3.27,15.74,3.86,23.29.59,7.61.21,16.3-1.16,26.07-2.07,14.77-5.96,26.85-11.64,36.14-5.67,9.26-12.13,14.3-19.35,15.11-5.84.66-10.06-1-12.67-4.96-2.59-3.93-4.02-9.18-4.29-15.77-.27-6.54.15-13.46,1.27-20.76Z"/>
      <path class="cls-14" d="M280.56,265.56l4.34-32.05c1.74-12.81,3.71-23.48,5.91-32.06,2.2-8.55,4.52-15.49,6.97-20.84,2.44-5.35,4.9-9.48,7.38-12.39,2.48-2.92,4.85-5.03,7.11-6.34,2.27-1.31,4.31-2.19,6.12-2.66,3.77-.96,7.07-.31,9.9,1.96,2.86,2.29,4.81,6.99,5.85,14.12,1.05,7.19.74,17.67-.95,31.46-.85,6.94-1.91,14.1-3.19,21.47-1.29,7.4-2.6,13.98-3.94,19.72l-28.65,5.21-2.31,17.63c-2,15.25-2.78,26.01-2.34,32.18.45,6.21,2.48,9.09,6.13,8.6,2-.27,4.04-2.28,6.11-6.03,2.08-3.76,3.71-10.38,4.9-19.82l.98-7.76,13.49-2.15-1.01,8.23c-2.1,17.2-5.71,30.1-10.78,38.56-5.06,8.44-11.41,13.09-18.99,13.94-7.52.85-12.44-4.43-14.8-15.72-2.33-11.14-1.72-29.62,1.75-55.28ZM315.72,228.92c.32-1.85.73-4.63,1.24-8.34.51-3.7.9-6.67,1.19-8.9,1.43-11.28,1.83-19.17,1.23-23.7-.6-4.51-2.21-6.48-4.81-5.94-2.77.66-5.16,3.85-7.18,9.6-2.03,5.75-3.98,15.85-5.89,30.38l-1.31,9.99,15.53-3.09Z"/>
      <path class="cls-12" d="M275.58,266.43l4.37-31.93c1.75-12.76,3.72-23.39,5.93-31.94,2.2-8.52,4.51-15.43,6.95-20.76,2.43-5.33,4.88-9.44,7.34-12.34,2.47-2.91,4.82-5.01,7.06-6.3,2.25-1.3,4.27-2.18,6.07-2.64,3.73-.95,7.01-.3,9.81,1.96,2.83,2.29,4.75,6.97,5.77,14.08,1.02,7.17.69,17.6-1.01,31.34-.86,6.92-1.93,14.04-3.21,21.38-1.29,7.37-2.61,13.92-3.95,19.64l-28.41,5.17-2.33,17.56c-2.01,15.19-2.81,25.9-2.39,32.05.43,6.19,2.44,9.05,6.05,8.57,1.98-.26,4.01-2.26,6.07-6,2.06-3.74,3.7-10.33,4.9-19.74l.99-7.73,13.38-2.13-1.02,8.2c-2.12,17.13-5.72,29.98-10.76,38.39-5.04,8.4-11.34,13.03-18.84,13.88s-12.32-4.42-14.63-15.66c-2.29-11.09-1.65-29.51,1.85-55.07ZM310.5,229.96c.32-1.84.73-4.62,1.25-8.31.51-3.68.91-6.64,1.2-8.86,1.44-11.24,1.86-19.09,1.27-23.6-.59-4.49-2.17-6.46-4.75-5.92-2.74.65-5.12,3.84-7.13,9.56-2.02,5.73-3.98,15.79-5.9,30.26l-1.32,9.95,15.39-3.06Z"/>
      <path class="cls-14" d="M348.24,177.06l-7.63,1.79,2.85-23.56,9.03-2.29,8.43-44.15,11.85-3.4-4.97,43.67,15.61-3.96-2.65,24.24-15.69,3.69-12.48,109.65c-.92,8.07-.75,13.1.5,15.06,1.26,1.97,2.91,2.81,4.97,2.53,3.28-.45,6.25-2.24,8.92-5.4l-2.41,22.06c-2.58,5.15-5.31,8.74-8.18,10.76-2.87,2.01-5.54,3.16-8.01,3.44-3.25.36-6.16-.55-8.74-2.74-2.56-2.17-4.3-6.66-5.22-13.44-.91-6.73-.58-16.73.99-29.93l12.83-108.01Z"/>
      <path class="cls-12" d="M342.91,178.31l-7.57,1.78,2.88-23.47,8.96-2.27,8.45-43.98,11.75-3.37-5.02,43.5,15.48-3.92-2.68,24.14-15.56,3.66-12.61,109.2c-.93,8.04-.78,13.04.46,14.99,1.24,1.96,2.88,2.8,4.91,2.53,3.25-.44,6.2-2.23,8.85-5.37l-2.44,21.96c-2.56,5.13-5.28,8.7-8.13,10.71-2.84,2-5.49,3.14-7.94,3.42-3.22.36-6.1-.55-8.65-2.73-2.53-2.16-4.25-6.64-5.14-13.39-.89-6.71-.54-16.66,1.05-29.81l12.95-107.58Z"/>
    </g>
  </g>
  <g id="_Слой_7" data-name="Слой 7">
    <g>
      <path class="cls-7" d="M568.98,462.1c11.9,36.05,16.18,71.05,9.7,108.11l30.76-.92c3.11-22.31.56-39.85.42-56.15-2.02-19.77-5.86-36.48-11.67-46.75l-29.2-4.3Z"/>
      <path class="cls-7" d="M538.52,422.38l29.51,5.96c12.68,5.79,21.77,19.62,29.58,37.97l-29.6-4.35c-8.22-21.2-18.03-33.29-29.49-39.57Z"/>
      <path class="cls-9" d="M578.68,570.2l30.76-.92-3.16,16.78-5.17,16.67c-3.13,7.54-6.61,13.95-10.48,19.11-1.75,2.46-5.11,5.2-8.72,8.01-4.77,3-12.24,4.13-20.38,4.92l-19.45,2.32c14.48-4.74,26.87-25.63,36.6-66.89Z"/>
      <path class="cls-3" d="M580.77,525.56c-2.22-54.38-23.57-100.48-49.6-105.78-28.3-5.76-53.47,37.85-53.93,101.19-.5,67.32,26.74,121.4,58.02,117.24,28.51-3.79,47.86-55.37,45.51-112.65Z"/>
      <path class="cls-4" d="M571.45,525.15c-1.87-51.11-20.12-94.01-42.15-98.24-23.63-4.54-44.25,36.34-44.47,94.4-.23,61.39,22.14,111.11,48.06,108.03,24-2.85,40.52-50.53,38.56-104.19Z"/>
      <path class="cls-2" d="M554.42,522.98c-.73-25.57-11.39-47.06-24.27-48.6-13.41-1.6-24.57,18.83-24.41,46.34.17,28.23,12.12,51.31,26.13,50.89,13.43-.4,23.3-22.43,22.55-48.63Z"/>
      <path class="cls-5" d="M550.63,521.38c.6,22.25-7.72,40.76-18.93,40.93-11.62.18-21.5-19.25-21.68-42.92-.18-23.16,9.03-40.53,20.23-39.29,10.82,1.2,19.8,19.48,20.39,41.28Z"/>
      <path class="cls-6" d="M542.07,637.1s23.47-2.53,32.08-4.26c8.37-1.68,11.49-6.11,14.44-8.71,2.92-2.57,9.08-12.69,10.78-17.3,5.55-11.72,9.08-32.53,10.06-37.55.82-4.18,1.54-23.61.94-32.99-.59-9.24.07-19.01-1.9-34.96-1.95-15.77-6.68-26.57-10.29-34.95-3.63-8.41-7.09-15.28-14.79-25.44-7.82-10.33-15.37-12.62-15.37-12.62l-29.51-5.96"/>
      <path class="cls-7" d="M300.92,425.79c17.43,51.91,19.18,102.17-2.3,156.28l64.52-2.18c10.6-31.98,8.76-56.87,11.57-79.81-.33-27.7-4.87-51.14-14.6-65.8l-59.19-8.5Z"/>
      <path class="cls-7" d="M244.51,366.23l61.43,12.19c24.98,9.54,40.78,29.62,53.02,55.7l-60.05-8.62c-12.85-30.71-31.09-48.89-54.4-59.27Z"/>
      <path class="cls-9" d="M298.62,582.08l64.52-2.18-9.77,24.41-14.07,24.69c-8.1,11.36-16.78,21.15-26.09,29.19-4.27,3.84-12.07,8.28-20.51,12.88-11.06,5.04-27.76,7.53-46.11,9.61l-44.93,5.76c34.3-8.98,66.78-42.11,96.96-104.36Z"/>
      <path class="cls-3" d="M312.47,516.96c6.55-77.56-28.52-144.44-83.39-155.43-62.01-12.41-132.7,48.75-151.67,145.9-20.88,106.91,31.68,192.03,108.07,181.54,66.23-9.09,119.93-88.38,127-172.02Z"/>
      <path class="cls-4" d="M292.8,516.16c6.88-73.42-22.64-135.9-69.5-144.74-51.94-9.8-110.81,48.08-127.35,136.76-18.04,96.73,23.25,174.81,86.21,167.06,55.91-6.88,103.25-80.24,110.63-159.08Z"/>
      <path class="cls-2" d="M256.46,512.6c4.14-37.37-14.27-69.23-42.46-72.5-29.93-3.47-60.89,26.14-67.67,67.78-7.06,43.34,15.21,78.83,47.97,77.72,30.73-1.04,57.86-34.28,62.16-73.01Z"/>
      <path class="cls-1" d="M248.53,510.14c-3.78,32.93-26.71,60.76-52.3,61.26-26.99.53-45.19-29.25-39.48-65.4,5.53-34.96,31.12-60.2,56.12-57.52,23.78,2.55,39.32,29.72,35.65,61.66Z"/>
      <path class="cls-6" d="M201.64,686.44s53.98-6.51,73.45-10.06c18.66-3.4,26.36-10.39,33.28-14.58s21.97-19.69,26.47-26.63c13.93-17.58,25.3-47.99,28.29-55.27,2.48-6.03,7.66-33.83,8.24-47.15.57-13.08,3.74-26.82,2.78-49.22s-8.38-37.35-14.05-49.23c-5.7-11.94-11.37-21.75-25.03-36.59-13.97-15.18-29.13-19.28-29.13-19.28l-61.43-12.19"/>
      <polygon class="cls-10" points="375.17 482.27 518.31 494.68 522.66 497.35 525.23 501.5 374.74 489.87 375.17 482.27"/>
      <polygon class="cls-13" points="373.3 515.64 374.74 489.87 525.23 501.5 528.08 510.46 529.39 522.7 373.3 515.64"/>
      <polygon class="cls-8" points="371.37 550.08 373.3 515.64 529.39 522.7 529.52 530.4 527.67 538.91 524.53 547.16 520.1 550.47 371.37 550.08"/>
      <path class="cls-6" d="M518.31,494.68l-143.14-12.41-3.8,67.81,147.61.39c6.06.02,10.68-12.51,10.42-27.77-.26-15.05-5.17-27.5-11.08-28.01Z"/>
    </g>
  </g>
</svg>